<svg width="128" height="128" viewBox="0 0 128 128" xmlns="http://www.w3.org/2000/svg">
  <!-- Shield shadow -->
  <path d="M64 6 L106 24 L106 74 C106 102 88 122 64 124 C40 122 22 102 22 74 L22 24 Z"
        fill="#B8001B" opacity="0.3"/>

  <!-- Main shield -->
  <path d="M64 4 L104 22 L104 74 C104 102 86 122 64 122 C42 122 24 102 24 74 L24 22 Z"
        fill="#E60023"/>

  <!-- Shield highlight -->
  <path d="M64 6 L100 23 L100 36 C100 38 99 40 96 42 L64 26 Z"
        fill="#FF6B6B"/>

  <!-- Large Pinterest P symbol -->
  <path d="M64 28C48.5 28 36 40.5 36 56c0 11.8 7.3 21.9 17.6 26-.3-2.4-.5-6 0.1-8.6 0.5-2.3 3.2-13.6 3.2-13.6s-0.8-1.6-0.8-4c0-3.8 2.2-6.6 4.9-6.6 2.3 0 3.4 1.7 3.4 3.8 0 2.3-1.5 5.7-2.2 8.9-0.6 2.6 1.3 4.8 4 4.8 4.7 0 8.4-5 8.4-12.3 0-6.4-4.6-10.9-11.2-10.9-7.6 0-12.1 5.7-12.1 11.6 0 2.3 0.9 4.8 2 6.1 0.2 0.3 0.3 0.5 0.2 0.8-0.2 0.8-0.7 2.9-0.8 3.3-0.1 0.6-0.4 0.7-1 0.4-3.6-1.7-5.9-7-5.9-11.2 0-8.4 6.1-16.2 17.7-16.2 9.3 0 16.5 6.6 16.5 15.5 0 9.2-5.8 16.6-13.9 16.6-2.7 0-5.2-1.4-6.1-3.1 0 0-1.3 5.1-1.7 6.3-0.6 2.4-2.3 5.3-3.4 7.1 2.6 0.8 5.3 1.2 8.1 1.2 15.5 0 28-12.5 28-28S79.5 28 64 28z" fill="white"/>

  <!-- Inner shield border -->
  <path d="M64 8 L102 25 L102 74 C102 100 84 118 64 120 C44 118 26 100 26 74 L26 25 Z"
        fill="none" stroke="rgba(255,255,255,0.2)" stroke-width="1"/>
</svg>
